<svg width="175" height="89" viewBox="0 0 175 89" fill="none" xmlns="http://www.w3.org/2000/svg">
<path d="M30.375 57.9062H11.2812V78H5.28125V32.5H33.4688V37.4375H11.2812V53H30.375V57.9062ZM59.5625 78C59.2292 77.3333 58.9583 76.1458 58.75 74.4375C56.0625 77.2292 52.8542 78.625 49.125 78.625C45.7917 78.625 43.0521 77.6875 40.9062 75.8125C38.7812 73.9167 37.7188 71.5208 37.7188 68.625C37.7188 65.1042 39.0521 62.375 41.7188 60.4375C44.4062 58.4792 48.1771 57.5 53.0312 57.5H58.6562V54.8438C58.6562 52.8229 58.0521 51.2188 56.8438 50.0312C55.6354 48.8229 53.8542 48.2188 51.5 48.2188C49.4375 48.2188 47.7083 48.7396 46.3125 49.7812C44.9167 50.8229 44.2188 52.0833 44.2188 53.5625H38.4062C38.4062 51.875 39 50.25 40.1875 48.6875C41.3958 47.1042 43.0208 45.8542 45.0625 44.9375C47.125 44.0208 49.3854 43.5625 51.8438 43.5625C55.7396 43.5625 58.7917 44.5417 61 46.5C63.2083 48.4375 64.3542 51.1146 64.4375 54.5312V70.0938C64.4375 73.1979 64.8333 75.6667 65.625 77.5V78H59.5625ZM49.9688 73.5938C51.7812 73.5938 53.5 73.125 55.125 72.1875C56.75 71.25 57.9271 70.0312 58.6562 68.5312V61.5938H54.125C47.0417 61.5938 43.5 63.6667 43.5 67.8125C43.5 69.625 44.1042 71.0417 45.3125 72.0625C46.5208 73.0833 48.0729 73.5938 49.9688 73.5938ZM79.7812 78H74V30H79.7812V78ZM103.094 78.625C98.5104 78.625 94.7812 77.125 91.9062 74.125C89.0312 71.1042 87.5938 67.0729 87.5938 62.0312V60.9688C87.5938 57.6146 88.2292 54.625 89.5 52C90.7917 49.3542 92.5833 47.2917 94.875 45.8125C97.1875 44.3125 99.6875 43.5625 102.375 43.5625C106.771 43.5625 110.188 45.0104 112.625 47.9062C115.062 50.8021 116.281 54.9479 116.281 60.3438V62.75H93.375C93.4583 66.0833 94.4271 68.7812 96.2812 70.8438C98.1562 72.8854 100.531 73.9062 103.406 73.9062C105.448 73.9062 107.177 73.4896 108.594 72.6562C110.01 71.8229 111.25 70.7188 112.312 69.3438L115.844 72.0938C113.01 76.4479 108.76 78.625 103.094 78.625ZM102.375 48.3125C100.042 48.3125 98.0833 49.1667 96.5 50.875C94.9167 52.5625 93.9375 54.9375 93.5625 58H110.5V57.5625C110.333 54.625 109.542 52.3542 108.125 50.75C106.708 49.125 104.792 48.3125 102.375 48.3125Z" fill="black"/>
<path d="M149.531 54.3125H170.297V59.5625H149.531V82.1562H143.859V59.5625H123.516V54.3125H143.859V32.4688H149.531V54.3125Z" fill="#1976D2"/>
</svg>
